<?xml version="1.0" encoding="UTF-8"?>
<svg version="1.1" xmlns="http://www.w3.org/2000/svg" width="415" height="410">
<path d="M0 0 C0.99980251 -0.00297112 1.99960502 -0.00594224 3.02970457 -0.0090034 C6.37800654 -0.01767093 9.72627267 -0.01919702 13.07458496 -0.02069092 C15.47637 -0.02532055 17.8781543 -0.03034541 20.27993774 -0.03573608 C26.80510691 -0.04885007 33.33026865 -0.05534048 39.85544777 -0.05974674 C43.93512221 -0.06251431 48.01479431 -0.06675267 52.09446716 -0.07125092 C63.40438945 -0.08344168 74.71430987 -0.09374042 86.02423859 -0.09712601 C86.74753836 -0.09734557 87.47083813 -0.09756514 88.21605608 -0.09779136 C89.30351434 -0.09811878 89.30351434 -0.09811878 90.41294146 -0.09845281 C91.88186169 -0.09889626 93.35078192 -0.09934283 94.81970215 -0.09979248 C95.54832803 -0.10001391 96.27695391 -0.10023534 97.02765936 -0.10046348 C108.8192594 -0.10440679 120.61079748 -0.12184737 132.40237361 -0.145152 C144.52766668 -0.16892134 156.65292873 -0.18133044 168.77824545 -0.18249393 C175.57837902 -0.18340771 182.37843188 -0.18908464 189.17854309 -0.20731354 C195.580764 -0.22384385 201.98283228 -0.22592559 208.38506699 -0.21717453 C210.72707911 -0.21640675 213.06909961 -0.22071243 215.41109085 -0.23063278 C242.15286671 -0.33720832 266.65148676 5.0709623 286.28747559 24.36309814 C287.19368652 25.27962158 288.09989746 26.19614502 289.03356934 27.14044189 C289.84696777 27.94352783 290.66036621 28.74661377 291.49841309 29.57403564 C308.39023638 47.15885682 315.20996647 71.04067999 315.1672821 94.93614197 C315.16954766 95.88133802 315.17181322 96.82653407 315.17414743 97.80037242 C315.18044278 100.94588676 315.17966094 104.09135752 315.17883301 107.23687744 C315.18182731 109.50117549 315.18523046 111.76547303 315.18901062 114.0297699 C315.19782778 120.16634762 315.20018779 126.3029114 315.20082641 132.43949485 C315.20153827 136.27813915 315.20367518 140.11677993 315.20632362 143.95542336 C315.21509317 156.66964043 315.21974427 169.38384592 315.21899315 182.09806528 C315.21893322 183.1243896 315.21893322 183.1243896 315.21887207 184.17144775 C315.21883119 184.85650852 315.21879031 185.54156929 315.21874819 186.24738947 C315.21834206 197.34039992 315.22790526 208.43337637 315.24201044 219.52637699 C315.25641035 230.94211907 315.26309593 242.35783772 315.26241666 253.77359039 C315.26216235 260.17236054 315.26497651 266.57109221 315.27559471 272.96985435 C315.28531559 278.99207361 315.28532759 285.01421791 315.27807808 291.0364399 C315.27703715 293.23815903 315.27936569 295.43988293 315.28543854 297.64159393 C315.35685895 325.34441872 311.32093658 350.91394976 292.03356934 372.14044189 C291.22274902 373.04407471 290.41192871 373.94770752 289.57653809 374.87872314 C273.48109439 391.91679898 251.1684225 401.86799394 227.71013916 402.60033512 C222.36739896 402.68616996 217.02694588 402.67840898 211.68371582 402.65802002 C209.27369771 402.66345128 206.86368292 402.67057953 204.45367432 402.67926025 C198.62786928 402.69550228 192.8022968 402.69326953 186.97648507 402.68160969 C182.23587853 402.67252022 177.49532965 402.67137497 172.75471687 402.67570496 C172.07612554 402.67631789 171.39753421 402.67693082 170.69837951 402.67756233 C169.31919827 402.67884142 167.94001705 402.68013828 166.56083585 402.68145269 C153.67505944 402.69281688 140.78939748 402.67981007 127.90363986 402.65825123 C116.88121866 402.64037995 105.85896603 402.64349264 94.83654785 402.66192627 C81.99058025 402.68339995 69.14471253 402.69172288 56.29872948 402.67947721 C54.92535501 402.67820321 53.55198053 402.67694573 52.17860603 402.67570496 C51.50313698 402.67508785 50.82766793 402.67447075 50.13173012 402.67383495 C45.40413997 402.67040177 40.67661395 402.67616607 35.94903374 402.68562317 C29.57039299 402.69724408 23.1920682 402.68904226 16.8134613 402.66604614 C14.48357732 402.66079251 12.15366639 402.66221483 9.82379341 402.6710968 C-16.64251612 402.76263013 -40.61079974 396.9479792 -60.15002441 377.95294189 C-61.07943848 377.02481689 -62.00885254 376.09669189 -62.96643066 375.14044189 C-63.78240723 374.33606689 -64.59838379 373.53169189 -65.43908691 372.70294189 C-80.55059237 356.9434302 -88.30720087 335.22630683 -88.2338562 313.59292603 C-88.23838731 312.59096809 -88.24291843 311.58901016 -88.24758685 310.55668986 C-88.26015152 307.23088066 -88.25861562 303.9052369 -88.25695801 300.57940674 C-88.26294826 298.18175041 -88.26975495 295.78409599 -88.27731323 293.38644409 C-88.29310426 287.56756782 -88.29941949 281.74874094 -88.30053799 275.9298443 C-88.30149204 271.19388153 -88.30562007 266.457932 -88.31193924 261.72197342 C-88.3295327 248.26004061 -88.33878122 234.79813955 -88.33727829 221.33619516 C-88.33719838 220.61207998 -88.33711847 219.8879648 -88.33703613 219.14190674 C-88.33691349 218.05438958 -88.33691349 218.05438958 -88.33678837 216.94490238 C-88.33597627 205.2073525 -88.35509981 193.46993119 -88.38331287 181.73241846 C-88.41213138 169.6464964 -88.42584821 157.56063684 -88.42412531 145.47467959 C-88.42346444 138.70300841 -88.42882261 131.93147199 -88.45048141 125.159832 C-88.46995127 118.78539723 -88.46992852 112.41124558 -88.45544815 106.03680038 C-88.45336971 103.70894453 -88.45800276 101.38107054 -88.47016907 99.05324554 C-88.55188416 82.32306339 -87.49834372 66.68851884 -79.90393066 51.45294189 C-79.51962891 50.6660498 -79.13532715 49.87915771 -78.73937988 49.06842041 C-68.02614492 27.99078334 -48.75614605 11.43710212 -26.30627441 3.91387939 C-17.36462251 1.30002111 -9.28500518 -0.00864949 0 0 Z " fill="#ECAFBA" transform="translate(91.9664306640625,3.85955810546875)"/>
<path d="M0 0 C7.95372158 4.86227508 14.59812941 10.33715421 18.0703125 19.265625 C19.80499112 27.18771498 20.36136591 34.91883438 20.32910156 43.0065918 C20.33435852 44.66538109 20.33435852 44.66538109 20.33972168 46.35768127 C20.3484507 49.97680125 20.34271909 53.59572213 20.3359375 57.21484375 C20.33728716 59.75771624 20.3392302 62.30058847 20.34173584 64.84346008 C20.34467559 70.16153672 20.34062288 75.47954371 20.33105469 80.79760742 C20.32020141 86.89942128 20.3236796 93.0011011 20.3347075 99.10291165 C20.34497125 105.02423924 20.34376433 110.94552617 20.33794403 116.86686134 C20.33662146 119.3619978 20.3382057 121.85713774 20.34290314 124.35227013 C20.39980115 163.07969771 20.39980115 163.07969771 13.0703125 174.265625 C12.5134375 175.173125 11.9565625 176.080625 11.3828125 177.015625 C2.44060047 185.71615563 -7.41145664 187.68740893 -19.38818359 187.62695312 C-33.22116789 187.33397774 -41.3529611 180.8423514 -50.9296875 171.265625 C-51.2596875 184.135625 -51.5896875 197.005625 -51.9296875 210.265625 C-71.0696875 210.265625 -90.2096875 210.265625 -109.9296875 210.265625 C-109.9296875 140.965625 -109.9296875 71.665625 -109.9296875 0.265625 C-91.1196875 0.265625 -72.3096875 0.265625 -52.9296875 0.265625 C-52.4346875 7.195625 -52.4346875 7.195625 -51.9296875 14.265625 C-50.6096875 12.615625 -49.2896875 10.965625 -47.9296875 9.265625 C-35.42103854 -2.09594261 -15.89088703 -7.8623901 0 0 Z " fill="#FEFEFE" transform="translate(321.9296875,120.734375)"/>
<path d="M0 0 C18.48 0 36.96 0 56 0 C56.33 16.17 56.66 32.34 57 49 C59.97 46.69 62.94 44.38 66 42 C77.16044245 35.35340142 90.98252617 35.27756118 103.4765625 37.6640625 C112.82554298 40.69260547 121.26532651 47.33752663 126 56 C130.52551979 67.65986863 130.14776749 80.33468464 130.11352539 92.65112305 C130.11324268 94.0911509 130.11340289 95.5311789 130.1139679 96.97120667 C130.1142526 100.84647764 130.10840904 104.7217171 130.10139394 108.59698081 C130.09510567 112.65952628 130.0945523 116.72207261 130.09336853 120.78462219 C130.09027126 128.46244447 130.08207967 136.14025236 130.07201904 143.81806833 C130.06080787 152.56543432 130.05533488 161.31280104 130.05032361 170.06017244 C130.03989558 188.04012475 130.02157022 206.02005736 130 224 C111.52 224 93.04 224 74 224 C73.98541748 219.64417725 73.97083496 215.28835449 73.95581055 210.80053711 C73.90549363 196.41552903 73.83905382 182.0306289 73.76428509 167.64572811 C73.71934317 158.92341763 73.6799248 150.20114783 73.65356445 141.47875977 C73.63057138 133.87522877 73.59715874 126.27182669 73.55129844 118.66839796 C73.52738383 114.643419 73.50864353 110.61856757 73.50238609 106.59351921 C73.49632722 102.80218478 73.47629868 99.0111766 73.44572449 95.21996307 C73.43695707 93.83128947 73.433219 92.44257321 73.43499184 91.05387306 C73.48920374 81.11073652 73.48920374 81.11073652 70 72 C68.83622098 70.61857444 68.83622098 70.61857444 65.625 70.75 C62.10175617 70.66853149 62.10175617 70.66853149 60.125 72.375 C57.85268727 75.6572295 57.8653052 77.88703644 57.84178162 81.85916138 C57.82709839 83.73122757 57.82709839 83.73122757 57.81211853 85.64111328 C57.80621396 87.0317379 57.80040354 88.42236292 57.79467773 89.81298828 C57.78510177 91.27139567 57.77509186 92.72980026 57.76467896 94.1882019 C57.73759328 98.15488129 57.71660359 102.12157261 57.69667697 106.08829355 C57.67483997 110.23099359 57.64744012 114.37365666 57.62062073 118.5163269 C57.57066287 126.36441845 57.52573554 134.21253048 57.48259836 142.06066215 C57.43325239 150.99405749 57.37832449 159.92741574 57.32291877 168.86077523 C57.20905125 187.24048396 57.10295957 205.62022671 57 224 C38.19 224 19.38 224 0 224 C0 150.08 0 76.16 0 0 Z " fill="#FEFEFE" transform="translate(69,81)"/>
<path d="M0 0 C1.19109375 0.00773438 1.19109375 0.00773438 2.40625 0.015625 C3.2003125 0.01046875 3.994375 0.0053125 4.8125 0 C6.90625 0.265625 6.90625 0.265625 8.90625 2.265625 C9.78141882 5.56588897 10.03426618 8.68153625 10.04669189 12.08520508 C10.05525711 13.49825424 10.05525711 13.49825424 10.06399536 14.93984985 C10.06511322 15.96130096 10.06623108 16.98275208 10.06738281 18.03515625 C10.07234772 19.12025482 10.07731262 20.20535339 10.08242798 21.32333374 C10.09701852 24.90827063 10.10384516 28.49316332 10.109375 32.078125 C10.1151274 34.57006837 10.12088513 37.06201173 10.12664795 39.55395508 C10.13714797 44.775881 10.14299771 49.99779157 10.14648438 55.21972656 C10.15025508 60.5837209 10.16436916 65.94757832 10.1875 71.31152344 C10.21499964 77.78822339 10.22789057 84.26478991 10.22982025 90.74154663 C10.23284987 93.21032828 10.24088876 95.679109 10.25400543 98.14785767 C10.27103052 101.59742771 10.2691945 105.04649892 10.26269531 108.49609375 C10.2719101 109.51754486 10.28112488 110.53899597 10.2906189 111.59140015 C10.23849025 120.40906049 10.23849025 120.40906049 6.90625 124.265625 C3.8583101 125.15460747 1.00264971 124.90108016 -2.09375 124.265625 C-4.85727472 121.76118072 -5.98717303 118.96797807 -6.22238445 115.21094799 C-6.2240603 114.4177028 -6.22573614 113.62445761 -6.22746277 112.80717468 C-6.23172775 111.89457886 -6.23599274 110.98198303 -6.24038696 110.04173279 C-6.23993378 109.04271439 -6.23948059 108.04369598 -6.23901367 107.0144043 C-6.24237228 105.96046478 -6.2457309 104.90652527 -6.24919128 103.82064819 C-6.25871123 100.32703481 -6.260645 96.83346931 -6.26171875 93.33984375 C-6.26493088 90.91469808 -6.26829492 88.48955261 -6.27180481 86.06440735 C-6.27779889 80.97595775 -6.27964445 75.88752515 -6.27905273 70.79907227 C-6.27895116 64.27883072 -6.2925973 57.75869819 -6.30982494 51.23848248 C-6.32094453 46.22762044 -6.32297194 41.21678475 -6.32244301 36.20591164 C-6.32362342 33.80215899 -6.3280486 31.39840567 -6.33577538 28.99466515 C-6.34557312 25.63137564 -6.34269779 22.26832261 -6.33666992 18.9050293 C-6.34228943 17.91208359 -6.34790894 16.91913788 -6.35369873 15.89610291 C-6.28493893 0.797343 -6.28493893 0.797343 0 0 Z " fill="#EAAAC0" transform="translate(275.09375,150.734375)"/>
</svg>
